<svg xmlns="http://www.w3.org/2000/svg" xmlns:xlink="http://www.w3.org/1999/xlink" width="512" zoomAndPan="magnify" viewBox="0 0 384 383.999986" height="512" preserveAspectRatio="xMidYMid meet" version="1.0"><defs><g/><clipPath id="83783cde13"><path d="M 5.796875 5.796875 L 378.546875 5.796875 L 378.546875 378.546875 L 5.796875 378.546875 Z M 5.796875 5.796875 " clip-rule="nonzero"/></clipPath><clipPath id="8405331288"><path d="M 3.304688 3.304688 L 380.554688 3.304688 L 380.554688 380.554688 L 3.304688 380.554688 Z M 3.304688 3.304688 " clip-rule="nonzero"/></clipPath><clipPath id="635d71e631"><path d="M 240 143 L 249.609375 143 L 249.609375 153 L 240 153 Z M 240 143 " clip-rule="nonzero"/></clipPath><clipPath id="b90581b84b"><path d="M 174 104.941406 L 184 104.941406 L 184 115 L 174 115 Z M 174 104.941406 " clip-rule="nonzero"/></clipPath><clipPath id="65a27b7371"><path d="M 136.359375 171 L 146 171 L 146 181 L 136.359375 181 Z M 136.359375 171 " clip-rule="nonzero"/></clipPath><clipPath id="e89687f461"><path d="M 202 209 L 212 209 L 212 218.941406 L 202 218.941406 Z M 202 209 " clip-rule="nonzero"/></clipPath></defs><g clip-path="url(#83783cde13)"><path fill="#ffffff" d="M 378.546875 192.171875 C 378.546875 195.222656 378.472656 198.269531 378.324219 201.316406 C 378.171875 204.363281 377.949219 207.40625 377.648438 210.441406 C 377.351562 213.476562 376.976562 216.5 376.53125 219.519531 C 376.082031 222.535156 375.5625 225.539062 374.964844 228.53125 C 374.371094 231.523438 373.703125 234.5 372.960938 237.457031 C 372.21875 240.417969 371.40625 243.355469 370.523438 246.273438 C 369.636719 249.191406 368.679688 252.085938 367.652344 254.960938 C 366.625 257.832031 365.527344 260.675781 364.359375 263.496094 C 363.191406 266.3125 361.957031 269.101562 360.652344 271.859375 C 359.347656 274.613281 357.976562 277.339844 356.539062 280.027344 C 355.101562 282.71875 353.597656 285.371094 352.03125 287.988281 C 350.464844 290.605469 348.832031 293.179688 347.136719 295.714844 C 345.441406 298.253906 343.6875 300.746094 341.871094 303.195312 C 340.050781 305.644531 338.175781 308.050781 336.242188 310.40625 C 334.308594 312.765625 332.316406 315.074219 330.265625 317.332031 C 328.21875 319.59375 326.117188 321.800781 323.957031 323.957031 C 321.800781 326.117188 319.59375 328.21875 317.332031 330.265625 C 315.074219 332.316406 312.765625 334.308594 310.40625 336.242188 C 308.050781 338.175781 305.644531 340.050781 303.195312 341.871094 C 300.746094 343.6875 298.253906 345.441406 295.714844 347.136719 C 293.179688 348.832031 290.605469 350.460938 287.988281 352.03125 C 285.371094 353.597656 282.71875 355.101562 280.027344 356.539062 C 277.339844 357.976562 274.613281 359.347656 271.855469 360.652344 C 269.101562 361.957031 266.3125 363.191406 263.496094 364.359375 C 260.675781 365.527344 257.832031 366.625 254.960938 367.652344 C 252.085938 368.679688 249.191406 369.636719 246.273438 370.523438 C 243.355469 371.40625 240.417969 372.21875 237.457031 372.960938 C 234.5 373.703125 231.523438 374.371094 228.53125 374.964844 C 225.539062 375.5625 222.535156 376.082031 219.519531 376.53125 C 216.5 376.976562 213.476562 377.351562 210.441406 377.648438 C 207.40625 377.949219 204.363281 378.171875 201.316406 378.324219 C 198.269531 378.472656 195.222656 378.546875 192.171875 378.546875 C 189.121094 378.546875 186.074219 378.472656 183.027344 378.324219 C 179.980469 378.171875 176.9375 377.949219 173.902344 377.648438 C 170.867188 377.351562 167.84375 376.976562 164.824219 376.53125 C 161.808594 376.082031 158.804688 375.5625 155.8125 374.964844 C 152.820312 374.371094 149.84375 373.703125 146.886719 372.960938 C 143.925781 372.21875 140.988281 371.40625 138.070312 370.523438 C 135.152344 369.636719 132.257812 368.679688 129.382812 367.652344 C 126.511719 366.625 123.667969 365.527344 120.847656 364.359375 C 118.03125 363.191406 115.242188 361.957031 112.484375 360.652344 C 109.730469 359.347656 107.003906 357.976562 104.316406 356.539062 C 101.625 355.101562 98.972656 353.597656 96.355469 352.03125 C 93.738281 350.460938 91.164062 348.832031 88.628906 347.136719 C 86.089844 345.441406 83.597656 343.6875 81.148438 341.871094 C 78.699219 340.050781 76.292969 338.175781 73.9375 336.242188 C 71.578125 334.308594 69.269531 332.316406 67.011719 330.265625 C 64.75 328.21875 62.542969 326.117188 60.386719 323.957031 C 58.226562 321.800781 56.125 319.59375 54.078125 317.332031 C 52.027344 315.074219 50.035156 312.765625 48.101562 310.40625 C 46.167969 308.050781 44.292969 305.644531 42.472656 303.195312 C 40.65625 300.746094 38.902344 298.253906 37.207031 295.714844 C 35.511719 293.179688 33.878906 290.605469 32.3125 287.988281 C 30.746094 285.371094 29.242188 282.71875 27.804688 280.027344 C 26.367188 277.339844 24.996094 274.613281 23.691406 271.855469 C 22.386719 269.101562 21.152344 266.3125 19.984375 263.496094 C 18.816406 260.675781 17.71875 257.832031 16.691406 254.960938 C 15.664062 252.085938 14.707031 249.191406 13.820312 246.273438 C 12.9375 243.355469 12.125 240.417969 11.382812 237.457031 C 10.640625 234.5 9.972656 231.523438 9.378906 228.53125 C 8.78125 225.539062 8.261719 222.535156 7.8125 219.519531 C 7.367188 216.5 6.992188 213.476562 6.695312 210.441406 C 6.394531 207.40625 6.171875 204.363281 6.019531 201.316406 C 5.871094 198.269531 5.796875 195.222656 5.796875 192.171875 C 5.796875 189.121094 5.871094 186.074219 6.019531 183.027344 C 6.171875 179.980469 6.394531 176.9375 6.695312 173.902344 C 6.992188 170.867188 7.367188 167.84375 7.8125 164.824219 C 8.261719 161.808594 8.78125 158.804688 9.378906 155.8125 C 9.972656 152.820312 10.640625 149.84375 11.382812 146.886719 C 12.125 143.925781 12.9375 140.988281 13.820312 138.070312 C 14.707031 135.152344 15.664062 132.257812 16.691406 129.382812 C 17.71875 126.511719 18.816406 123.667969 19.984375 120.847656 C 21.152344 118.03125 22.386719 115.242188 23.691406 112.484375 C 24.996094 109.730469 26.367188 107.003906 27.804688 104.316406 C 29.242188 101.625 30.746094 98.972656 32.3125 96.355469 C 33.878906 93.738281 35.511719 91.164062 37.207031 88.628906 C 38.902344 86.089844 40.65625 83.597656 42.472656 81.148438 C 44.292969 78.699219 46.167969 76.292969 48.101562 73.9375 C 50.035156 71.578125 52.027344 69.269531 54.078125 67.011719 C 56.125 64.75 58.226562 62.542969 60.386719 60.386719 C 62.542969 58.226562 64.75 56.125 67.011719 54.078125 C 69.269531 52.027344 71.578125 50.035156 73.9375 48.101562 C 76.292969 46.167969 78.699219 44.292969 81.148438 42.472656 C 83.597656 40.65625 86.089844 38.902344 88.628906 37.207031 C 91.164062 35.511719 93.738281 33.878906 96.355469 32.3125 C 98.972656 30.746094 101.625 29.242188 104.316406 27.804688 C 107.003906 26.367188 109.730469 24.996094 112.484375 23.691406 C 115.242188 22.386719 118.03125 21.152344 120.847656 19.984375 C 123.667969 18.816406 126.511719 17.71875 129.382812 16.691406 C 132.257812 15.664062 135.152344 14.707031 138.070312 13.820312 C 140.988281 12.9375 143.925781 12.125 146.886719 11.382812 C 149.84375 10.640625 152.820312 9.972656 155.8125 9.378906 C 158.804688 8.78125 161.808594 8.261719 164.824219 7.8125 C 167.84375 7.367188 170.867188 6.992188 173.902344 6.695312 C 176.9375 6.394531 179.980469 6.171875 183.027344 6.019531 C 186.074219 5.871094 189.121094 5.796875 192.171875 5.796875 C 195.222656 5.796875 198.269531 5.871094 201.316406 6.019531 C 204.363281 6.171875 207.40625 6.394531 210.441406 6.695312 C 213.476562 6.992188 216.5 7.367188 219.519531 7.8125 C 222.535156 8.261719 225.539062 8.78125 228.53125 9.378906 C 231.523438 9.972656 234.5 10.640625 237.457031 11.382812 C 240.417969 12.125 243.355469 12.9375 246.273438 13.820312 C 249.191406 14.707031 252.085938 15.664062 254.960938 16.691406 C 257.832031 17.71875 260.675781 18.816406 263.496094 19.984375 C 266.3125 21.152344 269.101562 22.386719 271.859375 23.691406 C 274.613281 24.996094 277.339844 26.367188 280.027344 27.804688 C 282.71875 29.242188 285.371094 30.746094 287.988281 32.3125 C 290.605469 33.878906 293.179688 35.511719 295.714844 37.207031 C 298.253906 38.902344 300.746094 40.65625 303.195312 42.472656 C 305.644531 44.292969 308.050781 46.167969 310.40625 48.101562 C 312.765625 50.035156 315.074219 52.027344 317.332031 54.078125 C 319.59375 56.125 321.800781 58.226562 323.957031 60.386719 C 326.117188 62.542969 328.21875 64.75 330.265625 67.011719 C 332.316406 69.269531 334.308594 71.578125 336.242188 73.9375 C 338.175781 76.292969 340.050781 78.699219 341.871094 81.148438 C 343.6875 83.597656 345.441406 86.089844 347.136719 88.628906 C 348.832031 91.164062 350.464844 93.738281 352.03125 96.355469 C 353.597656 98.972656 355.101562 101.625 356.539062 104.316406 C 357.976562 107.003906 359.347656 109.730469 360.652344 112.484375 C 361.957031 115.242188 363.191406 118.03125 364.359375 120.847656 C 365.527344 123.667969 366.625 126.511719 367.652344 129.382812 C 368.679688 132.257812 369.636719 135.152344 370.523438 138.070312 C 371.40625 140.988281 372.21875 143.925781 372.960938 146.886719 C 373.703125 149.84375 374.371094 152.820312 374.964844 155.8125 C 375.5625 158.804688 376.082031 161.808594 376.53125 164.824219 C 376.976562 167.84375 377.351562 170.867188 377.648438 173.902344 C 377.949219 176.9375 378.171875 179.980469 378.324219 183.027344 C 378.472656 186.074219 378.546875 189.121094 378.546875 192.171875 Z M 378.546875 192.171875 " fill-opacity="1" fill-rule="nonzero"/></g><g clip-path="url(#8405331288)"><path fill="#434336" d="M 191.929688 380.554688 C 87.953125 380.554688 3.304688 295.90625 3.304688 191.929688 C 3.304688 87.953125 87.953125 3.304688 191.929688 3.304688 C 295.90625 3.304688 380.554688 87.953125 380.554688 191.929688 C 380.554688 295.90625 295.90625 380.554688 191.929688 380.554688 Z M 191.929688 6.09375 C 89.441406 6.09375 6.09375 89.441406 6.09375 191.929688 C 6.09375 294.417969 89.441406 377.765625 191.929688 377.765625 C 294.417969 377.765625 377.765625 294.417969 377.765625 191.929688 C 377.765625 89.441406 294.417969 6.09375 191.929688 6.09375 Z M 191.929688 6.09375 " fill-opacity="1" fill-rule="nonzero"/></g><path fill="#000000" d="M 191.617188 186.917969 C 184.664062 186.917969 172.71875 186.421875 170.796875 183.125 C 169.132812 180.265625 168.484375 169.300781 168.433594 160.777344 C 168.398438 155.113281 168.585938 141.707031 171.011719 139.515625 C 173.648438 137.136719 189.890625 137.015625 193.121094 137.015625 C 197.496094 137.015625 211.976562 137.195312 214.722656 139.488281 C 217.339844 141.671875 217.589844 153.980469 217.507812 161.125 C 217.425781 168.054688 216.789062 180.5 214.925781 183.199219 C 212.425781 186.8125 193.738281 186.917969 191.617188 186.917969 Z M 193.121094 139.226562 C 180.371094 139.226562 173.382812 140.355469 172.496094 141.15625 C 171.738281 141.867188 170.566406 147.832031 170.644531 160.8125 C 170.707031 170.984375 171.59375 180.097656 172.710938 182.015625 C 173.316406 183.054688 178.984375 184.707031 191.617188 184.707031 C 204.222656 184.707031 212.324219 183.070312 213.105469 181.941406 C 214.078125 180.535156 215.164062 172.355469 215.296875 161.097656 C 215.449219 147.929688 214.15625 141.894531 213.304688 141.183594 C 212.167969 140.234375 204.707031 139.226562 193.121094 139.226562 Z M 193.121094 139.226562 " fill-opacity="1" fill-rule="nonzero"/><path fill="#000000" d="M 230.105469 170.519531 L 216.414062 170.519531 C 215.800781 170.519531 215.308594 170.027344 215.308594 169.414062 C 215.308594 168.804688 215.800781 168.308594 216.414062 168.308594 L 230.105469 168.308594 C 230.714844 168.308594 231.210938 168.804688 231.210938 169.414062 C 231.210938 170.027344 230.714844 170.519531 230.105469 170.519531 Z M 230.105469 170.519531 " fill-opacity="1" fill-rule="nonzero"/><path fill="#000000" d="M 230.105469 148.757812 L 216.414062 148.757812 C 215.800781 148.757812 215.308594 148.261719 215.308594 147.652344 C 215.308594 147.042969 215.800781 146.546875 216.414062 146.546875 L 230.105469 146.546875 C 230.714844 146.546875 231.210938 147.039062 231.210938 147.652344 C 231.210938 148.261719 230.714844 148.757812 230.105469 148.757812 Z M 230.105469 148.757812 " fill-opacity="1" fill-rule="nonzero"/><path fill="#000000" d="M 224.808594 156.128906 L 217.203125 156.128906 C 216.589844 156.128906 216.097656 155.632812 216.097656 155.023438 C 216.097656 154.414062 216.589844 153.917969 217.203125 153.917969 L 224.8125 153.917969 C 225.421875 153.917969 225.917969 154.414062 225.917969 155.023438 C 225.917969 155.632812 225.421875 156.128906 224.808594 156.128906 Z M 224.808594 156.128906 " fill-opacity="1" fill-rule="nonzero"/><path fill="#000000" d="M 231.664062 163.933594 L 216.414062 163.933594 C 215.800781 163.933594 215.308594 163.4375 215.308594 162.828125 C 215.308594 162.21875 215.800781 161.722656 216.414062 161.722656 L 230.757812 161.722656 L 242.121094 150.550781 C 242.558594 150.121094 243.257812 150.128906 243.6875 150.5625 C 244.113281 150.996094 244.109375 151.695312 243.671875 152.125 Z M 231.664062 163.933594 " fill-opacity="1" fill-rule="nonzero"/><path fill="#000000" d="M 233.578125 176.925781 L 216.414062 176.925781 C 215.800781 176.925781 215.308594 176.433594 215.308594 175.820312 C 215.308594 175.210938 215.800781 174.71875 216.414062 174.71875 L 233.578125 174.71875 C 234.1875 174.71875 234.683594 175.210938 234.683594 175.820312 C 234.683594 176.433594 234.1875 176.925781 233.578125 176.925781 Z M 233.578125 176.925781 " fill-opacity="1" fill-rule="nonzero"/><path fill="#000000" d="M 237.054688 180.398438 C 234.527344 180.398438 232.472656 178.347656 232.472656 175.824219 C 232.472656 173.300781 234.527344 171.246094 237.054688 171.246094 C 239.578125 171.246094 241.632812 173.300781 241.632812 175.824219 C 241.632812 178.347656 239.578125 180.398438 237.054688 180.398438 Z M 237.054688 173.453125 C 235.746094 173.453125 234.683594 174.515625 234.683594 175.824219 C 234.683594 177.128906 235.746094 178.191406 237.054688 178.191406 C 238.359375 178.191406 239.421875 177.128906 239.421875 175.824219 C 239.421875 174.515625 238.359375 173.453125 237.054688 173.453125 Z M 237.054688 173.453125 " fill-opacity="1" fill-rule="nonzero"/><g clip-path="url(#635d71e631)"><path fill="#000000" d="M 244.976562 152.515625 C 242.449219 152.515625 240.394531 150.460938 240.394531 147.9375 C 240.394531 145.414062 242.449219 143.359375 244.976562 143.359375 C 247.503906 143.359375 249.558594 145.414062 249.558594 147.9375 C 249.558594 150.460938 247.503906 152.515625 244.976562 152.515625 Z M 244.976562 145.570312 C 243.671875 145.570312 242.609375 146.632812 242.609375 147.9375 C 242.609375 149.242188 243.671875 150.304688 244.976562 150.304688 C 246.285156 150.304688 247.347656 149.242188 247.347656 147.9375 C 247.347656 146.632812 246.285156 145.570312 244.976562 145.570312 Z M 244.976562 145.570312 " fill-opacity="1" fill-rule="nonzero"/></g><path fill="#000000" d="M 200.515625 139.1875 C 199.902344 139.1875 199.40625 138.691406 199.40625 138.082031 L 199.40625 124.398438 C 199.40625 123.789062 199.902344 123.292969 200.515625 123.292969 C 201.125 123.292969 201.621094 123.789062 201.621094 124.398438 L 201.621094 138.082031 C 201.621094 138.691406 201.125 139.1875 200.515625 139.1875 Z M 200.515625 139.1875 " fill-opacity="1" fill-rule="nonzero"/><path fill="#000000" d="M 178.738281 139.1875 C 178.125 139.1875 177.632812 138.691406 177.632812 138.082031 L 177.632812 124.398438 C 177.632812 123.789062 178.125 123.292969 178.738281 123.292969 C 179.347656 123.292969 179.84375 123.789062 179.84375 124.398438 L 179.84375 138.082031 C 179.84375 138.691406 179.347656 139.1875 178.738281 139.1875 Z M 178.738281 139.1875 " fill-opacity="1" fill-rule="nonzero"/><path fill="#000000" d="M 186.113281 138.398438 C 185.503906 138.398438 185.007812 137.902344 185.007812 137.292969 L 185.007812 129.6875 C 185.007812 129.078125 185.503906 128.585938 186.113281 128.585938 C 186.722656 128.585938 187.21875 129.078125 187.21875 129.6875 L 187.21875 137.292969 C 187.21875 137.902344 186.722656 138.398438 186.113281 138.398438 Z M 186.113281 138.398438 " fill-opacity="1" fill-rule="nonzero"/><path fill="#000000" d="M 193.925781 139.1875 C 193.3125 139.1875 192.816406 138.691406 192.816406 138.082031 L 192.816406 123.746094 L 181.636719 112.386719 C 181.207031 111.953125 181.214844 111.253906 181.648438 110.824219 C 182.085938 110.398438 182.785156 110.402344 183.214844 110.839844 L 195.03125 122.839844 L 195.03125 138.082031 C 195.03125 138.691406 194.535156 139.1875 193.925781 139.1875 Z M 193.925781 139.1875 " fill-opacity="1" fill-rule="nonzero"/><path fill="#000000" d="M 206.925781 139.1875 C 206.316406 139.1875 205.820312 138.691406 205.820312 138.082031 L 205.820312 120.925781 C 205.820312 120.316406 206.316406 119.820312 206.925781 119.820312 C 207.535156 119.820312 208.03125 120.316406 208.03125 120.925781 L 208.03125 138.082031 C 208.03125 138.691406 207.535156 139.1875 206.925781 139.1875 Z M 206.925781 139.1875 " fill-opacity="1" fill-rule="nonzero"/><path fill="#000000" d="M 206.925781 122.03125 C 204.398438 122.03125 202.34375 119.976562 202.34375 117.453125 C 202.34375 114.929688 204.398438 112.878906 206.925781 112.878906 C 209.449219 112.878906 211.507812 114.929688 211.507812 117.453125 C 211.503906 119.976562 209.449219 122.03125 206.925781 122.03125 Z M 206.925781 115.085938 C 205.621094 115.085938 204.554688 116.148438 204.554688 117.453125 C 204.554688 118.761719 205.617188 119.820312 206.925781 119.820312 C 208.230469 119.820312 209.292969 118.761719 209.292969 117.453125 C 209.292969 116.148438 208.230469 115.085938 206.925781 115.085938 Z M 206.925781 115.085938 " fill-opacity="1" fill-rule="nonzero"/><g clip-path="url(#b90581b84b)"><path fill="#000000" d="M 179.023438 114.113281 C 176.496094 114.113281 174.441406 112.058594 174.441406 109.535156 C 174.441406 107.011719 176.496094 104.957031 179.023438 104.957031 C 181.546875 104.957031 183.601562 107.011719 183.601562 109.535156 C 183.601562 112.058594 181.546875 114.113281 179.023438 114.113281 Z M 179.023438 107.167969 C 177.714844 107.167969 176.652344 108.230469 176.652344 109.535156 C 176.652344 110.839844 177.714844 111.902344 179.023438 111.902344 C 180.328125 111.902344 181.390625 110.839844 181.390625 109.535156 C 181.390625 108.230469 180.328125 107.167969 179.023438 107.167969 Z M 179.023438 107.167969 " fill-opacity="1" fill-rule="nonzero"/></g><path fill="#000000" d="M 169.554688 155.613281 L 155.863281 155.613281 C 155.253906 155.613281 154.757812 155.121094 154.757812 154.507812 C 154.757812 153.898438 155.253906 153.40625 155.863281 153.40625 L 169.554688 153.40625 C 170.167969 153.40625 170.660156 153.898438 170.660156 154.507812 C 170.660156 155.121094 170.164062 155.613281 169.554688 155.613281 Z M 169.554688 155.613281 " fill-opacity="1" fill-rule="nonzero"/><path fill="#000000" d="M 169.554688 177.378906 L 155.863281 177.378906 C 155.253906 177.378906 154.757812 176.882812 154.757812 176.273438 C 154.757812 175.664062 155.253906 175.167969 155.863281 175.167969 L 169.554688 175.167969 C 170.167969 175.167969 170.660156 175.660156 170.660156 176.273438 C 170.660156 176.882812 170.164062 177.378906 169.554688 177.378906 Z M 169.554688 177.378906 " fill-opacity="1" fill-rule="nonzero"/><path fill="#000000" d="M 168.765625 170.007812 L 161.15625 170.007812 C 160.546875 170.007812 160.050781 169.511719 160.050781 168.902344 C 160.050781 168.292969 160.546875 167.796875 161.15625 167.796875 L 168.765625 167.796875 C 169.375 167.796875 169.871094 168.292969 169.871094 168.902344 C 169.871094 169.511719 169.375 170.007812 168.765625 170.007812 Z M 168.765625 170.007812 " fill-opacity="1" fill-rule="nonzero"/><path fill="#000000" d="M 143.070312 173.691406 C 142.785156 173.691406 142.5 173.582031 142.28125 173.363281 C 141.851562 172.925781 141.859375 172.226562 142.292969 171.800781 L 154.304688 159.992188 L 169.554688 159.992188 C 170.167969 159.992188 170.660156 160.484375 170.660156 161.097656 C 170.660156 161.707031 170.167969 162.199219 169.554688 162.199219 L 155.210938 162.199219 L 143.84375 173.375 C 143.628906 173.585938 143.351562 173.691406 143.070312 173.691406 Z M 143.070312 173.691406 " fill-opacity="1" fill-rule="nonzero"/><path fill="#000000" d="M 169.554688 149.207031 L 152.390625 149.207031 C 151.777344 149.207031 151.285156 148.710938 151.285156 148.101562 C 151.285156 147.492188 151.777344 146.996094 152.390625 146.996094 L 169.554688 146.996094 C 170.167969 146.996094 170.660156 147.492188 170.660156 148.101562 C 170.660156 148.710938 170.164062 149.207031 169.554688 149.207031 Z M 169.554688 149.207031 " fill-opacity="1" fill-rule="nonzero"/><path fill="#000000" d="M 148.914062 152.679688 C 146.386719 152.679688 144.332031 150.625 144.332031 148.101562 C 144.332031 145.578125 146.386719 143.523438 148.914062 143.523438 C 151.441406 143.523438 153.496094 145.578125 153.496094 148.101562 C 153.496094 150.625 151.441406 152.679688 148.914062 152.679688 Z M 148.914062 145.734375 C 147.609375 145.734375 146.546875 146.796875 146.546875 148.101562 C 146.546875 149.40625 147.609375 150.46875 148.914062 150.46875 C 150.21875 150.46875 151.28125 149.40625 151.28125 148.101562 C 151.28125 146.796875 150.21875 145.734375 148.914062 145.734375 Z M 148.914062 145.734375 " fill-opacity="1" fill-rule="nonzero"/><g clip-path="url(#65a27b7371)"><path fill="#000000" d="M 140.992188 180.566406 C 138.464844 180.566406 136.410156 178.511719 136.410156 175.988281 C 136.410156 173.464844 138.464844 171.410156 140.992188 171.410156 C 143.515625 171.410156 145.570312 173.464844 145.570312 175.988281 C 145.570312 178.511719 143.515625 180.566406 140.992188 180.566406 Z M 140.992188 173.621094 C 139.683594 173.621094 138.621094 174.683594 138.621094 175.988281 C 138.621094 177.292969 139.683594 178.355469 140.992188 178.355469 C 142.296875 178.355469 143.359375 177.292969 143.359375 175.988281 C 143.359375 174.683594 142.296875 173.621094 140.992188 173.621094 Z M 140.992188 173.621094 " fill-opacity="1" fill-rule="nonzero"/></g><path fill="#000000" d="M 185.453125 200.628906 C 184.84375 200.628906 184.347656 200.136719 184.347656 199.523438 L 184.347656 185.84375 C 184.347656 185.230469 184.84375 184.738281 185.453125 184.738281 C 186.0625 184.738281 186.558594 185.230469 186.558594 185.84375 L 186.558594 199.523438 C 186.558594 200.136719 186.0625 200.628906 185.453125 200.628906 Z M 185.453125 200.628906 " fill-opacity="1" fill-rule="nonzero"/><path fill="#000000" d="M 207.230469 200.628906 C 206.621094 200.628906 206.125 200.136719 206.125 199.523438 L 206.125 185.84375 C 206.125 185.230469 206.621094 184.738281 207.230469 184.738281 C 207.839844 184.738281 208.335938 185.230469 208.335938 185.84375 L 208.335938 199.523438 C 208.335938 200.136719 207.839844 200.628906 207.230469 200.628906 Z M 207.230469 200.628906 " fill-opacity="1" fill-rule="nonzero"/><path fill="#000000" d="M 199.855469 195.339844 C 199.242188 195.339844 198.75 194.847656 198.75 194.234375 L 198.75 186.632812 C 198.75 186.023438 199.242188 185.527344 199.855469 185.527344 C 200.464844 185.527344 200.960938 186.019531 200.960938 186.632812 L 200.960938 194.234375 C 200.960938 194.84375 200.464844 195.339844 199.855469 195.339844 Z M 199.855469 195.339844 " fill-opacity="1" fill-rule="nonzero"/><path fill="#000000" d="M 203.542969 213.417969 C 203.257812 213.417969 202.972656 213.304688 202.753906 213.085938 L 190.9375 201.082031 L 190.9375 185.84375 C 190.9375 185.234375 191.433594 184.738281 192.042969 184.738281 C 192.652344 184.738281 193.148438 185.230469 193.148438 185.84375 L 193.148438 200.179688 L 204.332031 211.535156 C 204.757812 211.972656 204.753906 212.671875 204.316406 213.097656 C 204.101562 213.308594 203.824219 213.417969 203.542969 213.417969 Z M 203.542969 213.417969 " fill-opacity="1" fill-rule="nonzero"/><path fill="#000000" d="M 179.042969 204.101562 C 178.429688 204.101562 177.9375 203.609375 177.9375 202.996094 L 177.9375 185.84375 C 177.9375 185.230469 178.429688 184.738281 179.042969 184.738281 C 179.652344 184.738281 180.148438 185.230469 180.148438 185.84375 L 180.148438 202.996094 C 180.148438 203.609375 179.652344 204.101562 179.042969 204.101562 Z M 179.042969 204.101562 " fill-opacity="1" fill-rule="nonzero"/><path fill="#000000" d="M 179.042969 211.046875 C 176.515625 211.046875 174.460938 208.996094 174.460938 206.46875 C 174.460938 203.945312 176.515625 201.894531 179.042969 201.894531 C 181.566406 201.894531 183.621094 203.945312 183.621094 206.46875 C 183.621094 208.996094 181.566406 211.046875 179.042969 211.046875 Z M 179.042969 204.101562 C 177.734375 204.101562 176.671875 205.164062 176.671875 206.46875 C 176.671875 207.777344 177.734375 208.839844 179.042969 208.839844 C 180.347656 208.839844 181.410156 207.777344 181.410156 206.46875 C 181.410156 205.164062 180.347656 204.101562 179.042969 204.101562 Z M 179.042969 204.101562 " fill-opacity="1" fill-rule="nonzero"/><g clip-path="url(#e89687f461)"><path fill="#000000" d="M 206.945312 218.964844 C 204.417969 218.964844 202.363281 216.914062 202.363281 214.390625 C 202.363281 211.867188 204.417969 209.8125 206.945312 209.8125 C 209.472656 209.8125 211.527344 211.867188 211.527344 214.390625 C 211.527344 216.914062 209.472656 218.964844 206.945312 218.964844 Z M 206.945312 212.019531 C 205.636719 212.019531 204.574219 213.082031 204.574219 214.390625 C 204.574219 215.695312 205.636719 216.757812 206.945312 216.757812 C 208.25 216.757812 209.3125 215.695312 209.3125 214.390625 C 209.316406 213.082031 208.25 212.019531 206.945312 212.019531 Z M 206.945312 212.019531 " fill-opacity="1" fill-rule="nonzero"/></g><path fill="#434336" d="M 192.441406 166.527344 C 189.863281 166.527344 187.761719 164.429688 187.761719 161.851562 C 187.761719 159.269531 189.863281 157.171875 192.441406 157.171875 C 195.023438 157.171875 197.121094 159.269531 197.121094 161.851562 C 197.121094 164.429688 195.023438 166.527344 192.441406 166.527344 Z M 192.441406 159.382812 C 191.082031 159.382812 189.972656 160.488281 189.972656 161.851562 C 189.972656 163.210938 191.082031 164.316406 192.441406 164.316406 C 193.804688 164.316406 194.910156 163.210938 194.910156 161.851562 C 194.910156 160.488281 193.804688 159.382812 192.441406 159.382812 Z M 192.441406 159.382812 " fill-opacity="1" fill-rule="nonzero"/><path fill="#434336" d="M 193.0625 176.128906 C 192.464844 176.128906 191.003906 176.046875 190.328125 175.273438 C 190.121094 175.035156 189.753906 174.613281 189.527344 172.109375 C 189.0625 171.976562 188.605469 171.8125 188.164062 171.621094 C 186.371094 173.046875 185.773438 173.148438 185.503906 173.195312 C 185.410156 173.210938 185.316406 173.21875 185.222656 173.21875 C 184.25 173.21875 183.324219 172.382812 182.859375 171.882812 C 182.394531 171.386719 181.625 170.417969 181.6875 169.503906 C 181.714844 169.105469 181.855469 168.550781 183.105469 167.011719 C 182.808594 166.480469 182.558594 165.921875 182.359375 165.347656 C 180.644531 165.125 180.058594 164.851562 179.746094 164.628906 C 179.179688 164.226562 178.863281 163.464844 178.808594 162.375 C 178.789062 162.003906 178.742188 160.117188 179.660156 159.320312 C 179.953125 159.066406 180.425781 158.78125 182.285156 158.574219 C 182.484375 157.964844 182.734375 157.375 183.039062 156.808594 C 182.015625 155.472656 181.800781 154.875 181.738281 154.5 C 181.628906 153.859375 181.898438 153.152344 182.539062 152.394531 C 183.074219 151.757812 184.265625 150.683594 185.320312 150.683594 C 185.359375 150.683594 185.394531 150.683594 185.429688 150.6875 C 185.835938 150.714844 186.402344 150.863281 187.988281 152.15625 C 188.5 151.921875 189.023438 151.730469 189.5625 151.578125 C 189.820312 149.441406 190.15625 148.964844 190.3125 148.746094 C 190.867188 147.96875 192.015625 147.804688 192.886719 147.804688 C 193.480469 147.804688 194.945312 147.886719 195.621094 148.660156 C 195.832031 148.902344 196.207031 149.335938 196.433594 151.960938 C 196.816406 152.113281 197.195312 152.292969 197.558594 152.492188 C 199.519531 150.894531 200.179688 150.78125 200.445312 150.738281 C 200.535156 150.722656 200.628906 150.714844 200.726562 150.714844 C 201.695312 150.714844 202.621094 151.550781 203.089844 152.050781 C 203.554688 152.546875 204.324219 153.515625 204.261719 154.429688 C 204.238281 154.746094 204.195312 155.382812 202.238281 157.644531 C 202.355469 157.925781 202.464844 158.21875 202.558594 158.46875 C 203.835938 158.582031 205.511719 158.816406 206.203125 159.304688 C 206.769531 159.707031 207.085938 160.464844 207.140625 161.558594 C 207.15625 161.929688 207.203125 163.8125 206.289062 164.613281 C 206.042969 164.828125 205.550781 165.253906 202.480469 165.464844 C 202.382812 165.734375 202.285156 166 202.195312 166.230469 C 203.027344 167.214844 204.066406 168.585938 204.210938 169.433594 C 204.320312 170.074219 204.050781 170.78125 203.410156 171.539062 C 202.871094 172.175781 201.679688 173.25 200.625 173.25 C 200.589844 173.25 200.550781 173.25 200.515625 173.246094 C 200.203125 173.226562 199.578125 173.183594 197.386719 171.300781 C 197.082031 171.457031 196.769531 171.601562 196.453125 171.734375 C 196.199219 174.394531 195.78125 174.980469 195.636719 175.1875 C 195.082031 175.964844 193.929688 176.128906 193.0625 176.128906 Z M 192.011719 173.78125 C 192.207031 173.84375 192.589844 173.921875 193.0625 173.921875 C 193.476562 173.921875 193.742188 173.863281 193.867188 173.824219 C 194 173.457031 194.195312 172.355469 194.308594 170.855469 L 194.363281 170.117188 L 195.066406 169.886719 C 195.722656 169.671875 196.351562 169.378906 196.933594 169.011719 L 197.640625 168.570312 L 198.261719 169.125 C 199.5 170.234375 200.3125 170.816406 200.65625 171.003906 C 201.082031 170.804688 201.820312 170.097656 202 169.722656 C 201.804688 169.300781 200.957031 168.15625 200.089844 167.175781 L 199.632812 166.65625 L 199.898438 166.019531 C 199.902344 166.007812 200.402344 164.808594 200.59375 164.109375 L 200.808594 163.339844 L 201.605469 163.300781 C 203.191406 163.222656 204.363281 163.058594 204.800781 162.925781 C 204.960938 162.488281 204.984375 161.464844 204.84375 161.074219 C 204.40625 160.910156 203 160.703125 201.691406 160.621094 L 200.949219 160.574219 L 200.710938 159.871094 C 200.589844 159.511719 200.214844 158.460938 199.953125 157.960938 L 199.597656 157.28125 L 200.113281 156.710938 C 201.238281 155.457031 201.828125 154.636719 202.015625 154.285156 C 201.816406 153.863281 201.113281 153.128906 200.734375 152.949219 C 200.433594 153.089844 199.625 153.621094 198.386719 154.683594 L 197.757812 155.222656 L 197.0625 154.769531 C 196.433594 154.355469 195.753906 154.03125 195.042969 153.804688 L 194.328125 153.574219 L 194.28125 152.824219 C 194.179688 151.285156 194.03125 150.472656 193.9375 150.152344 C 193.742188 150.085938 193.359375 150.011719 192.886719 150.011719 C 192.472656 150.011719 192.207031 150.066406 192.082031 150.109375 C 191.992188 150.367188 191.816406 151.117188 191.683594 152.574219 L 191.605469 153.394531 L 190.796875 153.554688 C 189.945312 153.722656 189.128906 154.019531 188.371094 154.4375 L 187.699219 154.808594 L 187.117188 154.308594 C 186.039062 153.382812 185.503906 153.046875 185.289062 152.929688 C 184.867188 153.128906 184.132812 153.828125 183.953125 154.207031 C 184.039062 154.386719 184.332031 154.910156 185.234375 156.015625 L 185.738281 156.636719 L 185.308594 157.308594 C 184.804688 158.097656 184.4375 158.957031 184.21875 159.863281 L 184.035156 160.636719 L 183.238281 160.703125 C 181.945312 160.8125 181.371094 160.941406 181.148438 161.007812 C 180.992188 161.449219 180.964844 162.460938 181.105469 162.855469 C 181.34375 162.941406 182.019531 163.101562 183.316406 163.230469 L 184.074219 163.308594 L 184.273438 164.042969 C 184.507812 164.917969 184.882812 165.746094 185.382812 166.503906 L 185.84375 167.199219 L 185.300781 167.832031 C 184.382812 168.902344 184.050781 169.433594 183.933594 169.648438 C 184.132812 170.070312 184.835938 170.804688 185.214844 170.984375 C 185.460938 170.863281 186.136719 170.445312 187.300781 169.472656 L 187.867188 168.996094 L 188.523438 169.339844 C 189.238281 169.714844 190 169.984375 190.785156 170.140625 L 191.617188 170.304688 L 191.671875 171.152344 C 191.769531 172.660156 191.917969 173.464844 192.011719 173.78125 Z M 192.011719 173.78125 " fill-opacity="1" fill-rule="nonzero"/><g fill="#434336" fill-opacity="1"><g transform="translate(72.987833, 271.998436)"><g><path d="M 50.34375 -6.96875 C 50.738281 -6.664062 50.9375 -6.226562 50.9375 -5.65625 C 50.9375 -4.820312 50.351562 -3.890625 49.1875 -2.859375 C 48.03125 -1.828125 46.582031 -0.945312 44.84375 -0.21875 C 43.113281 0.5 41.503906 0.859375 40.015625 0.859375 C 37.867188 0.859375 35.972656 0.0351562 34.328125 -1.609375 C 32.679688 -3.253906 31.15625 -5.8125 29.75 -9.28125 C 28.820312 -11.644531 27.523438 -15.59375 25.859375 -21.125 L 21.65625 -17.109375 C 21.039062 -16.492188 19.1875 -14.71875 16.09375 -11.78125 C 13 -8.84375 10.925781 -6.78125 9.875 -5.59375 C 8.6875 -4.226562 7.785156 -2.832031 7.171875 -1.40625 C 6.554688 0.0078125 6.25 1.859375 6.25 4.140625 C 6.25 5.066406 6.316406 5.878906 6.453125 6.578125 C 5.003906 5.878906 3.972656 5.125 3.359375 4.3125 C 2.742188 3.5 2.4375 2.457031 2.4375 1.1875 C 2.4375 -0.832031 3.023438 -2.6875 4.203125 -4.375 C 5.390625 -6.0625 6.882812 -7.71875 8.6875 -9.34375 C 14.613281 -14.738281 20.03125 -19.765625 24.9375 -24.421875 C 24.632812 -25.554688 24.414062 -26.300781 24.28125 -26.65625 C 22.65625 -32.488281 21.5625 -36.195312 21 -37.78125 C 20.207031 -39.882812 19.269531 -41.316406 18.1875 -42.078125 C 17.113281 -42.847656 15.722656 -43.234375 14.015625 -43.234375 C 12.265625 -43.234375 10.75 -42.925781 9.46875 -42.3125 C 8.195312 -41.695312 6.863281 -40.753906 5.46875 -39.484375 C 4.976562 -39.972656 4.734375 -40.476562 4.734375 -41 C 4.734375 -41.789062 5.269531 -42.601562 6.34375 -43.4375 C 7.425781 -44.269531 8.773438 -44.957031 10.390625 -45.5 C 12.015625 -46.050781 13.597656 -46.328125 15.140625 -46.328125 C 17.503906 -46.328125 19.472656 -45.632812 21.046875 -44.25 C 22.628906 -42.875 23.925781 -40.847656 24.9375 -38.171875 C 25.507812 -36.585938 26.585938 -33.007812 28.171875 -27.4375 C 37.160156 -35.957031 43.457031 -42.390625 47.0625 -46.734375 C 47.363281 -47.078125 47.515625 -47.492188 47.515625 -47.984375 C 47.515625 -48.679688 47.296875 -49.25 46.859375 -49.6875 C 46.992188 -49.863281 47.300781 -49.953125 47.78125 -49.953125 C 48.082031 -49.953125 48.71875 -49.359375 49.6875 -48.171875 C 50.65625 -46.984375 51.140625 -46.171875 51.140625 -45.734375 C 51.140625 -45.429688 50.960938 -45.101562 50.609375 -44.75 C 46.960938 -41.113281 40.488281 -34.90625 31.1875 -26.125 C 30.75 -25.644531 30.050781 -24.96875 29.09375 -24.09375 C 30.882812 -17.726562 32.460938 -12.988281 33.828125 -9.875 C 35.015625 -7.195312 36.222656 -5.332031 37.453125 -4.28125 C 38.679688 -3.226562 40.128906 -2.703125 41.796875 -2.703125 C 43.410156 -2.703125 44.953125 -3.09375 46.421875 -3.875 C 47.898438 -4.664062 49.207031 -5.695312 50.34375 -6.96875 Z M 50.34375 -6.96875 "/></g></g></g><g fill="#434336" fill-opacity="1"><g transform="translate(125.768912, 271.998436)"><g><path d="M 41.796875 -15.203125 C 42.359375 -15.203125 42.640625 -14.628906 42.640625 -13.484375 C 42.640625 -11.472656 41.75 -9.347656 39.96875 -7.109375 C 38.195312 -4.867188 36.050781 -2.988281 33.53125 -1.46875 C 31.007812 0.0390625 28.695312 0.796875 26.59375 0.796875 C 24.875 0.796875 23.550781 0.269531 22.625 -0.78125 C 21.707031 -1.84375 21.164062 -3.207031 21 -4.875 C 19.894531 -3.289062 18.507812 -1.992188 16.84375 -0.984375 C 15.175781 0.0234375 13.6875 0.53125 12.375 0.53125 C 11.226562 0.53125 10.097656 0.144531 8.984375 -0.625 C 7.867188 -1.394531 6.957031 -2.335938 6.25 -3.453125 C 5.550781 -4.578125 5.179688 -5.640625 5.140625 -6.640625 L 8.359375 -19.9375 C 8.617188 -20.988281 9.285156 -22.117188 10.359375 -23.328125 C 11.441406 -24.535156 12.75 -25.535156 14.28125 -26.328125 C 15.8125 -27.117188 17.367188 -27.515625 18.953125 -27.515625 C 20.972656 -27.515625 22.75 -26.832031 24.28125 -25.46875 C 24.675781 -26.519531 24.972656 -27.175781 25.171875 -27.4375 C 25.367188 -27.707031 25.664062 -27.863281 26.0625 -27.90625 L 29.28125 -28.234375 L 29.484375 -28.109375 C 28.609375 -27.398438 27.972656 -26.300781 27.578125 -24.8125 C 26.210938 -19.71875 25.273438 -15.960938 24.765625 -13.546875 C 24.265625 -11.140625 24.015625 -9.015625 24.015625 -7.171875 C 24.015625 -5.328125 24.253906 -3.976562 24.734375 -3.125 C 25.222656 -2.269531 26.039062 -1.84375 27.1875 -1.84375 C 28.582031 -1.84375 30.253906 -2.410156 32.203125 -3.546875 C 34.160156 -4.691406 36.015625 -6.285156 37.765625 -8.328125 C 39.523438 -10.367188 40.867188 -12.660156 41.796875 -15.203125 Z M 12.640625 -2.5625 C 13.378906 -2.5625 14.285156 -2.820312 15.359375 -3.34375 C 16.441406 -3.875 17.453125 -4.632812 18.390625 -5.625 C 19.335938 -6.613281 19.988281 -7.742188 20.34375 -9.015625 L 21.59375 -14.40625 C 21.757812 -15.289062 22.0625 -16.707031 22.5 -18.65625 C 22.945312 -20.613281 23.300781 -22.117188 23.5625 -23.171875 C 22.332031 -24.398438 20.835938 -25.015625 19.078125 -25.015625 C 17.722656 -25.015625 16.492188 -24.648438 15.390625 -23.921875 C 14.296875 -23.203125 13.398438 -22.328125 12.703125 -21.296875 C 12.003906 -20.265625 11.566406 -19.351562 11.390625 -18.5625 L 8.75 -6.84375 C 8.84375 -5.75 9.28125 -4.757812 10.0625 -3.875 C 10.851562 -3 11.710938 -2.5625 12.640625 -2.5625 Z M 12.640625 -2.5625 "/></g></g></g><g fill="#434336" fill-opacity="1"><g transform="translate(159.991062, 271.998436)"><g><path d="M 19.671875 -29.609375 C 22.265625 -28.828125 24.175781 -27.851562 25.40625 -26.6875 C 26.632812 -25.519531 27.25 -23.773438 27.25 -21.453125 C 27.25 -19.648438 26.820312 -17.96875 25.96875 -16.40625 C 25.113281 -14.851562 23.804688 -13.175781 22.046875 -11.375 C 20.296875 -9.582031 17.378906 -6.820312 13.296875 -3.09375 C 12.546875 -2.4375 11.425781 -1.40625 9.9375 0 L 7.234375 0 C 7.410156 -0.695312 7.5 -1.203125 7.5 -1.515625 L 7.4375 -18.6875 L 7.4375 -21 C 7.4375 -22.3125 7.335938 -23.15625 7.140625 -23.53125 C 6.941406 -23.90625 6.445312 -24.09375 5.65625 -24.09375 L 1.125 -24.15625 C 1.125 -24.726562 1.273438 -25.164062 1.578125 -25.46875 C 3.160156 -25.644531 4.332031 -25.832031 5.09375 -26.03125 C 5.863281 -26.226562 6.554688 -26.457031 7.171875 -26.71875 C 7.785156 -26.976562 8.289062 -27.195312 8.6875 -27.375 C 9.695312 -27.019531 10.332031 -26.382812 10.59375 -25.46875 C 10.851562 -24.550781 10.984375 -23.320312 10.984375 -21.78125 C 10.984375 -17.832031 10.921875 -13.953125 10.796875 -10.140625 C 10.796875 -9.472656 10.75 -7.253906 10.65625 -3.484375 C 15.664062 -8.703125 19.066406 -12.648438 20.859375 -15.328125 C 22.660156 -18.003906 23.5625 -20.285156 23.5625 -22.171875 C 23.5625 -25.023438 22.046875 -27.394531 19.015625 -29.28125 Z M 19.671875 -29.609375 "/></g></g></g><g fill="#434336" fill-opacity="1"><g transform="translate(187.632017, 271.998436)"><g><path d="M 11.0625 0.453125 C 9.519531 0.453125 8.144531 -0.0546875 6.9375 -1.078125 C 5.738281 -2.109375 5.140625 -3.632812 5.140625 -5.65625 C 5.796875 -7.757812 6.9375 -12.429688 8.5625 -19.671875 C 9.34375 -23.234375 9.820312 -25.363281 10 -26.0625 C 10.570312 -27.03125 11.363281 -27.515625 12.375 -27.515625 C 13.03125 -27.515625 13.359375 -27.289062 13.359375 -26.84375 C 13.054688 -25.75 12.628906 -24.003906 12.078125 -21.609375 C 11.523438 -19.222656 11.097656 -17.351562 10.796875 -16 C 9.609375 -10.550781 8.796875 -7.0625 8.359375 -5.53125 C 8.359375 -4.519531 8.65625 -3.738281 9.25 -3.1875 C 9.84375 -2.644531 10.617188 -2.375 11.578125 -2.375 C 13.773438 -2.375 15.976562 -3.148438 18.1875 -4.703125 C 20.40625 -6.265625 22.359375 -8.078125 24.046875 -10.140625 C 25.742188 -12.203125 27.007812 -13.976562 27.84375 -15.46875 C 28.101562 -15.375 28.273438 -15.226562 28.359375 -15.03125 C 28.453125 -14.832031 28.5 -14.492188 28.5 -14.015625 C 28.5 -13.359375 28.28125 -12.679688 27.84375 -11.984375 C 25.46875 -8.253906 22.8125 -5.25 19.875 -2.96875 C 16.9375 -0.6875 14 0.453125 11.0625 0.453125 Z M 14.09375 -35.734375 C 13.476562 -35.734375 12.992188 -35.941406 12.640625 -36.359375 C 12.285156 -36.773438 12.109375 -37.3125 12.109375 -37.96875 C 12.109375 -38.851562 12.394531 -39.65625 12.96875 -40.375 C 13.539062 -41.101562 14.265625 -41.46875 15.140625 -41.46875 C 15.847656 -41.46875 16.363281 -41.242188 16.6875 -40.796875 C 17.019531 -40.359375 17.1875 -39.832031 17.1875 -39.21875 C 17.1875 -38.34375 16.890625 -37.539062 16.296875 -36.8125 C 15.703125 -36.09375 14.96875 -35.734375 14.09375 -35.734375 Z M 14.09375 -35.734375 "/></g></g></g><g fill="#434336" fill-opacity="1"><g transform="translate(207.375565, 271.998436)"><g><path d="M 32.3125 -15.734375 C 33.101562 -15.597656 33.5 -15.15625 33.5 -14.40625 C 33.5 -12.65625 32.367188 -10.601562 30.109375 -8.25 C 27.847656 -5.90625 25.179688 -3.890625 22.109375 -2.203125 C 19.035156 -0.515625 16.46875 0.328125 14.40625 0.328125 C 12.4375 0.328125 10.726562 -0.1875 9.28125 -1.21875 C 7.832031 -2.25 6.722656 -3.398438 5.953125 -4.671875 C 5.179688 -5.941406 4.796875 -6.882812 4.796875 -7.5 C 5.503906 -10 6.273438 -13.46875 7.109375 -17.90625 L 7.828125 -21.59375 C 8.003906 -22.46875 8.640625 -23.375 9.734375 -24.3125 C 10.835938 -25.257812 12.066406 -26.050781 13.421875 -26.6875 C 14.785156 -27.320312 15.882812 -27.640625 16.71875 -27.640625 C 17.375 -27.640625 18.171875 -27.429688 19.109375 -27.015625 C 20.054688 -26.597656 20.890625 -25.953125 21.609375 -25.078125 C 22.335938 -24.203125 22.703125 -23.082031 22.703125 -21.71875 C 22.703125 -20.132812 22.175781 -18.640625 21.125 -17.234375 C 20.070312 -15.835938 18.515625 -14.695312 16.453125 -13.8125 C 14.390625 -12.9375 11.910156 -12.5 9.015625 -12.5 L 8.09375 -8.09375 C 8.09375 -7.695312 8.320312 -7.035156 8.78125 -6.109375 C 9.25 -5.191406 9.992188 -4.359375 11.015625 -3.609375 C 12.046875 -2.867188 13.351562 -2.5 14.9375 -2.5 C 17.039062 -2.5 19.253906 -3.1875 21.578125 -4.5625 C 23.910156 -5.945312 26.039062 -7.671875 27.96875 -9.734375 C 29.894531 -11.796875 31.34375 -13.796875 32.3125 -15.734375 Z M 16.1875 -24.9375 C 15.664062 -24.9375 14.988281 -24.71875 14.15625 -24.28125 C 13.320312 -23.84375 12.5625 -23.296875 11.875 -22.640625 C 11.195312 -21.984375 10.789062 -21.367188 10.65625 -20.796875 C 10.21875 -18.816406 9.828125 -16.820312 9.484375 -14.8125 C 12.859375 -14.9375 15.398438 -15.601562 17.109375 -16.8125 C 18.816406 -18.019531 19.671875 -19.390625 19.671875 -20.921875 C 19.671875 -22.023438 19.273438 -22.96875 18.484375 -23.75 C 17.703125 -24.539062 16.9375 -24.9375 16.1875 -24.9375 Z M 16.1875 -24.9375 "/></g></g></g><g fill="#434336" fill-opacity="1"><g transform="translate(232.252427, 271.998436)"><g><path d="M 34.421875 -23.5 C 34.597656 -23.445312 34.75 -23.3125 34.875 -23.09375 C 35.007812 -22.875 35.078125 -22.632812 35.078125 -22.375 C 35.078125 -21.457031 34.648438 -20.566406 33.796875 -19.703125 C 32.941406 -18.847656 31.820312 -18.15625 30.4375 -17.625 C 29.050781 -17.101562 27.660156 -16.84375 26.265625 -16.84375 C 24.066406 -16.84375 22.1875 -17.410156 20.625 -18.546875 C 19.070312 -19.691406 18.078125 -21.296875 17.640625 -23.359375 C 15.660156 -23.140625 13.847656 -21.890625 12.203125 -19.609375 C 10.554688 -17.328125 9.40625 -14.847656 8.75 -12.171875 C 8.664062 -11.734375 8.335938 -10.382812 7.765625 -8.125 C 7.191406 -5.863281 6.644531 -3.195312 6.125 -0.125 C 6.082031 0 6.023438 0.09375 5.953125 0.15625 C 5.890625 0.226562 5.75 0.265625 5.53125 0.265625 C 5.21875 0.265625 4.753906 0.132812 4.140625 -0.125 C 3.523438 -0.394531 3.21875 -0.679688 3.21875 -0.984375 C 3.21875 -1.597656 3.328125 -2.410156 3.546875 -3.421875 C 6.222656 -15.796875 7.957031 -23.453125 8.75 -26.390625 C 8.84375 -26.785156 8.941406 -27.046875 9.046875 -27.171875 C 9.160156 -27.304688 9.347656 -27.375 9.609375 -27.375 C 9.785156 -27.375 10.15625 -27.226562 10.71875 -26.9375 C 11.289062 -26.65625 11.753906 -26.363281 12.109375 -26.0625 L 10.921875 -22.25 L 10.53125 -20.921875 C 11.539062 -22.503906 12.703125 -23.773438 14.015625 -24.734375 C 15.335938 -25.703125 16.742188 -26.1875 18.234375 -26.1875 C 18.671875 -26.1875 19.109375 -26.144531 19.546875 -26.0625 C 19.984375 -25.976562 20.289062 -25.867188 20.46875 -25.734375 C 20.46875 -23.585938 21.023438 -22 22.140625 -20.96875 C 23.265625 -19.9375 24.832031 -19.421875 26.84375 -19.421875 C 28.644531 -19.421875 30.140625 -19.722656 31.328125 -20.328125 C 32.515625 -20.941406 33.546875 -22 34.421875 -23.5 Z M 34.421875 -23.5 "/></g></g></g><g fill="#434336" fill-opacity="1"><g transform="translate(256.602804, 271.998436)"><g><path d="M 10.984375 -30.203125 C 10.765625 -29.898438 10.457031 -29.75 10.0625 -29.75 C 9.800781 -29.75 9.5625 -29.820312 9.34375 -29.96875 C 9.125 -30.125 9.015625 -30.335938 9.015625 -30.609375 C 9.015625 -30.828125 9.054688 -31 9.140625 -31.125 C 15.679688 -43.632812 19.300781 -50.394531 20 -51.40625 C 20.488281 -52.0625 21.039062 -52.390625 21.65625 -52.390625 C 22.226562 -52.390625 22.84375 -52.210938 23.5 -51.859375 C 24.15625 -51.503906 24.460938 -51.128906 24.421875 -50.734375 L 18.359375 -41.53125 Z M 10.984375 -30.203125 "/></g></g></g><g fill="#434336" fill-opacity="1"><g transform="translate(282.203597, 271.998436)"><g><path d="M 8.296875 0.859375 C 6.191406 0.859375 4.398438 0.351562 2.921875 -0.65625 C 1.453125 -1.664062 0.71875 -2.828125 0.71875 -4.140625 C 0.71875 -4.847656 0.914062 -5.421875 1.3125 -5.859375 C 1.707031 -6.296875 2.144531 -6.554688 2.625 -6.640625 C 3.113281 -4.972656 3.90625 -3.722656 5 -2.890625 C 6.09375 -2.054688 7.429688 -1.640625 9.015625 -1.640625 C 10.992188 -1.640625 12.570312 -2.195312 13.75 -3.3125 C 14.9375 -4.4375 15.53125 -5.742188 15.53125 -7.234375 C 15.53125 -8.335938 15.210938 -9.304688 14.578125 -10.140625 C 13.941406 -10.972656 12.988281 -11.9375 11.71875 -13.03125 C 10.3125 -14.257812 9.265625 -15.320312 8.578125 -16.21875 C 7.898438 -17.125 7.5625 -18.210938 7.5625 -19.484375 C 7.5625 -20.835938 7.988281 -22.128906 8.84375 -23.359375 C 9.707031 -24.585938 10.804688 -25.570312 12.140625 -26.3125 C 13.484375 -27.0625 14.878906 -27.4375 16.328125 -27.4375 C 17.597656 -27.4375 18.769531 -27.160156 19.84375 -26.609375 C 20.914062 -26.066406 21.453125 -25.335938 21.453125 -24.421875 C 21.453125 -23.535156 20.925781 -22.613281 19.875 -21.65625 C 19.300781 -22.664062 18.597656 -23.441406 17.765625 -23.984375 C 16.929688 -24.535156 16.054688 -24.8125 15.140625 -24.8125 C 13.734375 -24.8125 12.664062 -24.296875 11.9375 -23.265625 C 11.21875 -22.234375 10.859375 -21.210938 10.859375 -20.203125 C 10.859375 -19.367188 11.140625 -18.625 11.703125 -17.96875 C 12.273438 -17.3125 13.175781 -16.476562 14.40625 -15.46875 C 15.90625 -14.195312 17.046875 -13.054688 17.828125 -12.046875 C 18.617188 -11.035156 19.015625 -9.847656 19.015625 -8.484375 C 19.015625 -7.035156 18.539062 -5.585938 17.59375 -4.140625 C 16.65625 -2.691406 15.363281 -1.492188 13.71875 -0.546875 C 12.070312 0.390625 10.265625 0.859375 8.296875 0.859375 Z M 8.296875 0.859375 "/></g></g></g><g fill="#434336" fill-opacity="1"><g transform="translate(67.00462, 197.196714)"><g><path d="M 1.054688 -12.121094 L 1.054688 0 L 8.382812 0 L 8.382812 -1.300781 L 2.582031 -1.300781 L 2.582031 -5.421875 L 7.308594 -5.421875 L 7.308594 -6.703125 L 2.582031 -6.703125 L 2.582031 -10.824219 L 8.382812 -10.824219 L 8.382812 -12.121094 Z M 1.054688 -12.121094 "/></g></g></g><g fill="#434336" fill-opacity="1"><g transform="translate(76.961582, 197.196714)"><g><path d="M 4.953125 -12.398438 C 2.527344 -12.398438 1.054688 -11.203125 1.054688 -9.160156 C 1.054688 -7.914062 1.59375 -6.859375 3.117188 -6.128906 L 6.441406 -4.605469 C 7.34375 -4.171875 7.550781 -3.621094 7.550781 -2.875 C 7.550781 -1.523438 6.5625 -0.96875 5.023438 -0.96875 C 3.394531 -0.96875 2.40625 -1.59375 2.40625 -2.996094 L 0.882812 -2.996094 C 0.882812 -0.867188 2.285156 0.277344 4.953125 0.277344 C 7.621094 0.277344 9.074219 -0.832031 9.074219 -2.960938 C 9.074219 -4.242188 8.625 -5.144531 7.273438 -5.785156 L 3.792969 -7.394531 C 2.859375 -7.863281 2.582031 -8.503906 2.582031 -9.28125 C 2.582031 -10.476562 3.480469 -11.152344 4.882812 -11.152344 C 6.425781 -11.152344 7.394531 -10.40625 7.394531 -9.125 L 8.902344 -9.125 C 8.902344 -11.1875 7.378906 -12.398438 4.953125 -12.398438 Z M 4.953125 -12.398438 "/></g></g></g><g fill="#434336" fill-opacity="1"><g transform="translate(88.130638, 197.196714)"><g><path d="M 0.171875 -12.121094 L 0.171875 -10.824219 L 3.410156 -10.824219 L 3.410156 0 L 4.917969 0 L 4.917969 -10.824219 L 8.140625 -10.824219 L 8.140625 -12.121094 Z M 0.171875 -12.121094 "/></g></g></g><g fill="#434336" fill-opacity="1"><g transform="translate(97.672031, 197.196714)"><g><path d="M 1.054688 -12.121094 L 1.054688 0 L 5.578125 0 C 8.226562 0 9.855469 -2.183594 9.855469 -6.0625 C 9.855469 -9.941406 8.363281 -12.121094 5.578125 -12.121094 Z M 2.582031 -10.859375 L 5.210938 -10.859375 C 7.273438 -10.859375 8.347656 -9.246094 8.347656 -6.0625 C 8.347656 -2.875 7.222656 -1.265625 5.210938 -1.265625 L 2.582031 -1.265625 Z M 2.582031 -10.859375 "/></g></g></g><g fill="#434336" fill-opacity="1"><g transform="translate(274.274664, 197.196714)"><g><path d="M 4.691406 -12.398438 C 2.546875 -12.398438 1.054688 -11.203125 1.054688 -9.246094 L 2.582031 -9.246094 C 2.582031 -10.425781 3.359375 -11.136719 4.691406 -11.136719 C 6.25 -11.136719 6.824219 -10.339844 6.824219 -9.214844 C 6.824219 -8.261719 6.511719 -7.636719 5.644531 -6.910156 L 2.339844 -4.242188 C 1.367188 -3.410156 0.882812 -2.546875 0.882812 -1.195312 L 0.882812 0 L 8.503906 0 L 8.503906 -1.300781 L 2.425781 -1.300781 C 2.492188 -2.164062 2.839844 -2.789062 3.480469 -3.324219 L 6.703125 -5.886719 C 7.914062 -6.925781 8.328125 -7.792969 8.328125 -9.230469 C 8.328125 -11.082031 7.03125 -12.398438 4.691406 -12.398438 Z M 4.691406 -12.398438 "/></g></g></g><g fill="#434336" fill-opacity="1"><g transform="translate(284.889622, 197.196714)"><g><path d="M 4.691406 -12.398438 C 2.0625 -12.398438 0.882812 -9.976562 0.882812 -6.0625 C 0.882812 -2.148438 2.0625 0.277344 4.691406 0.277344 C 7.308594 0.277344 8.503906 -2.148438 8.503906 -6.0625 C 8.503906 -9.976562 7.308594 -12.398438 4.691406 -12.398438 Z M 4.691406 -11.136719 C 6.304688 -11.136719 6.996094 -9.195312 6.996094 -6.0625 C 6.996094 -2.925781 6.304688 -0.988281 4.691406 -0.988281 C 3.082031 -0.988281 2.40625 -2.925781 2.40625 -6.0625 C 2.40625 -9.195312 3.082031 -11.136719 4.691406 -11.136719 Z M 4.691406 -11.136719 "/></g></g></g><g fill="#434336" fill-opacity="1"><g transform="translate(295.469947, 197.196714)"><g><path d="M 4.691406 -12.398438 C 2.0625 -12.398438 0.882812 -9.976562 0.882812 -6.0625 C 0.882812 -2.148438 2.0625 0.277344 4.691406 0.277344 C 7.308594 0.277344 8.503906 -2.148438 8.503906 -6.0625 C 8.503906 -9.976562 7.308594 -12.398438 4.691406 -12.398438 Z M 4.691406 -11.136719 C 6.304688 -11.136719 6.996094 -9.195312 6.996094 -6.0625 C 6.996094 -2.925781 6.304688 -0.988281 4.691406 -0.988281 C 3.082031 -0.988281 2.40625 -2.925781 2.40625 -6.0625 C 2.40625 -9.195312 3.082031 -11.136719 4.691406 -11.136719 Z M 4.691406 -11.136719 "/></g></g></g><g fill="#434336" fill-opacity="1"><g transform="translate(306.050271, 197.196714)"><g><path d="M 4.691406 -12.398438 C 2.0625 -12.398438 0.882812 -9.976562 0.882812 -6.0625 C 0.882812 -2.148438 2.0625 0.277344 4.691406 0.277344 C 7.308594 0.277344 8.503906 -2.148438 8.503906 -6.0625 C 8.503906 -9.976562 7.308594 -12.398438 4.691406 -12.398438 Z M 4.691406 -11.136719 C 6.304688 -11.136719 6.996094 -9.195312 6.996094 -6.0625 C 6.996094 -2.925781 6.304688 -0.988281 4.691406 -0.988281 C 3.082031 -0.988281 2.40625 -2.925781 2.40625 -6.0625 C 2.40625 -9.195312 3.082031 -11.136719 4.691406 -11.136719 Z M 4.691406 -11.136719 "/></g></g></g><g fill="#434336" fill-opacity="1"><g transform="translate(121.168598, 99.756857)"><g><path d="M -12.117188 -12.3125 L 0.972656 -1.140625 L 2.488281 -2.917969 L -3.328125 -7.882812 L 2.867188 -15.136719 L 8.683594 -10.175781 L 10.199219 -11.953125 L -2.894531 -23.125 L -4.410156 -21.347656 L 1.40625 -16.382812 L -4.785156 -9.125 L -10.601562 -14.089844 Z M -12.117188 -12.3125 "/></g></g></g><g fill="#434336" fill-opacity="1"><g transform="translate(134.888194, 84.304911)"><g><path d="M -2.832031 -19.535156 C -7.074219 -16.546875 -7.125 -12.304688 -3.925781 -7.757812 C -0.730469 -3.214844 3.28125 -1.828125 7.527344 -4.816406 C 11.769531 -7.800781 11.796875 -12.03125 8.597656 -16.574219 C 5.402344 -21.121094 1.410156 -22.519531 -2.832031 -19.535156 Z M -1.730469 -17.964844 C 1.285156 -20.089844 4.191406 -18.824219 6.710938 -15.246094 C 9.226562 -11.667969 9.4375 -8.507812 6.421875 -6.382812 C 3.40625 -4.261719 0.5 -5.523438 -2.015625 -9.105469 C -4.535156 -12.683594 -4.746094 -15.84375 -1.730469 -17.964844 Z M -1.730469 -17.964844 "/></g></g></g><g fill="#434336" fill-opacity="1"><g transform="translate(152.476214, 72.328257)"><g><path d="M -4.445312 -16.695312 L 1.410156 -0.511719 L 3.605469 -1.304688 L -1.09375 -14.300781 L 8.695312 -3.144531 L 10.011719 -3.621094 L 10.363281 -18.472656 L 15.074219 -5.453125 L 17.292969 -6.257812 L 11.4375 -22.441406 L 8.410156 -21.347656 L 8.085938 -6.925781 L -1.417969 -17.789062 Z M -4.445312 -16.695312 "/></g></g></g><g fill="#434336" fill-opacity="1"><g transform="translate(174.685756, 65.110849)"><g><path d="M -0.195312 -17.277344 L 1.515625 -0.152344 L 13.773438 -1.378906 L 13.582031 -3.285156 L 3.648438 -2.292969 L 3.082031 -7.992188 L 11.203125 -8.804688 L 11.011719 -10.714844 L 2.890625 -9.902344 L 2.320312 -15.601562 L 12.253906 -16.59375 L 12.0625 -18.503906 Z M -0.195312 -17.277344 "/></g></g></g><g fill="#434336" fill-opacity="1"><g transform="translate(192.669124, 63.42627)"><g><path d="M 4.019531 -16.800781 L 1.484375 0.222656 L 3.792969 0.566406 L 5.832031 -13.101562 L 9.144531 1.363281 L 10.53125 1.570312 L 17.894531 -11.328125 L 15.855469 2.363281 L 18.191406 2.710938 L 20.726562 -14.3125 L 17.542969 -14.789062 L 10.402344 -2.253906 L 7.207031 -16.328125 Z M 4.019531 -16.800781 "/></g></g></g><g fill="#434336" fill-opacity="1"><g transform="translate(215.616784, 67.556449)"><g><path d="M 12.539062 -13.367188 L 0.226562 0.0976562 L 2.464844 1.050781 L 5.75 -2.519531 L 12.402344 0.3125 L 12.078125 5.148438 L 14.339844 6.109375 L 15.5 -12.105469 Z M 12.53125 -1.742188 L 7.125 -4.046875 L 13.105469 -10.558594 Z M 12.53125 -1.742188 "/></g></g></g><g fill="#434336" fill-opacity="1"><g transform="translate(233.328505, 75.46452)"><g><path d="M 11.542969 -12.855469 L 1.199219 0.902344 L 7.605469 5.71875 C 10.949219 8.230469 14.871094 7.304688 18.183594 2.902344 C 21.492188 -1.5 21.464844 -5.394531 17.949219 -8.039062 Z M 12.269531 -9.941406 L 16.261719 -6.941406 C 18.953125 -4.917969 19.003906 -2.078125 16.316406 1.5 C 13.625 5.074219 10.789062 5.742188 8.195312 3.789062 L 4.203125 0.792969 Z M 12.269531 -9.941406 "/></g></g></g><g fill="#434336" fill-opacity="1"><g transform="translate(249.815503, 88.610016)"><g><path d="M 14.226562 -9.804688 L 0.972656 1.175781 L 8.832031 10.660156 L 10.308594 9.4375 L 3.9375 1.75 L 8.351562 -1.90625 L 13.558594 4.382812 L 15.035156 3.160156 L 9.828125 -3.128906 L 14.242188 -6.78125 L 20.609375 0.90625 L 22.085938 -0.316406 Z M 14.226562 -9.804688 "/></g></g></g><g fill="#434336" fill-opacity="1"><g transform="translate(152.307917, 307.009891)"><g><path d="M 0.867188 -9.9375 L 0.867188 0 L 2.214844 0 L 2.214844 -3.433594 L 5.480469 -3.433594 C 7.464844 -3.433594 8.671875 -4.613281 8.671875 -6.714844 C 8.671875 -8.84375 7.464844 -9.9375 5.480469 -9.9375 Z M 2.214844 -4.542969 L 2.214844 -8.828125 L 5.222656 -8.828125 C 6.558594 -8.828125 7.324219 -8.089844 7.324219 -6.714844 C 7.324219 -5.378906 6.558594 -4.542969 5.222656 -4.542969 Z M 2.214844 -4.542969 "/></g></g></g><g fill="#434336" fill-opacity="1"><g transform="translate(164.473005, 307.009891)"><g><path d="M 2.199219 -8.828125 L 4.898438 -8.828125 C 6.21875 -8.828125 6.984375 -8.105469 6.984375 -6.828125 C 6.984375 -5.550781 6.21875 -4.828125 4.898438 -4.828125 L 2.199219 -4.828125 Z M 2.199219 -3.71875 L 5.621094 -3.71875 C 6.359375 -3.71875 6.984375 -3.09375 6.984375 -2.355469 L 6.984375 -0.539062 C 6.984375 -0.339844 7.070312 -0.0703125 7.226562 0 L 8.628906 0 C 8.433594 -0.0859375 8.347656 -0.328125 8.347656 -0.539062 L 8.347656 -2.242188 C 8.347656 -3.265625 7.835938 -4.058594 6.925781 -4.371094 C 7.835938 -4.8125 8.347656 -5.664062 8.347656 -6.957031 C 8.347656 -8.898438 7.152344 -9.9375 5.222656 -9.9375 L 0.851562 -9.9375 L 0.851562 0 L 2.199219 0 Z M 2.199219 -3.71875 "/></g></g></g><g fill="#434336" fill-opacity="1"><g transform="translate(176.638062, 307.009891)"><g><path d="M 5.152344 -10.164062 C 2.15625 -10.164062 0.722656 -8.175781 0.722656 -4.96875 C 0.722656 -1.761719 2.15625 0.226562 5.152344 0.226562 C 8.148438 0.226562 9.566406 -1.761719 9.566406 -4.96875 C 9.566406 -8.175781 8.148438 -10.164062 5.152344 -10.164062 Z M 5.152344 -9.054688 C 7.28125 -9.054688 8.234375 -7.496094 8.234375 -4.96875 C 8.234375 -2.441406 7.28125 -0.878906 5.152344 -0.878906 C 3.023438 -0.878906 2.074219 -2.441406 2.074219 -4.96875 C 2.074219 -7.496094 3.023438 -9.054688 5.152344 -9.054688 Z M 5.152344 -9.054688 "/></g></g></g><g fill="#434336" fill-opacity="1"><g transform="translate(189.910351, 307.009891)"><g><path d="M 0.878906 -9.9375 L 0.878906 0 L 2.230469 0 L 2.230469 -4.414062 L 6.941406 -4.414062 L 6.941406 -5.523438 L 2.230469 -5.523438 L 2.230469 -8.828125 L 7.992188 -8.828125 L 7.992188 -9.9375 Z M 0.878906 -9.9375 "/></g></g></g><g fill="#434336" fill-opacity="1"><g transform="translate(201.081777, 307.009891)"><g><path d="M 0.867188 -9.9375 L 0.867188 0 L 2.214844 0 L 2.214844 -9.9375 Z M 0.867188 -9.9375 "/></g></g></g><g fill="#434336" fill-opacity="1"><g transform="translate(207.143005, 307.009891)"><g><path d="M 0.867188 -9.9375 L 0.867188 0 L 7.992188 0 L 7.992188 -1.105469 L 2.214844 -1.105469 L 2.214844 -9.9375 Z M 0.867188 -9.9375 "/></g></g></g><g fill="#434336" fill-opacity="1"><g transform="translate(218.229264, 307.009891)"><g><path d="M 0.878906 -9.9375 L 0.878906 0 L 7.992188 0 L 7.992188 -1.105469 L 2.230469 -1.105469 L 2.230469 -4.414062 L 6.941406 -4.414062 L 6.941406 -5.523438 L 2.230469 -5.523438 L 2.230469 -8.828125 L 7.992188 -8.828125 L 7.992188 -9.9375 Z M 0.878906 -9.9375 "/></g></g></g></svg>